Coordinates
version=1
nRows=11
nColumns=42
inDegrees=yes

Units are S.I. units (second, meters, Newtons, ...)
If the header above contains a line with 'inDegrees', this indicates whether rotational values are in degrees (yes) or radians (no).

endheader
time	pelvis_tilt	pelvis_list	pelvis_rotation	pelvis_tx	pelvis_ty	pelvis_tz	hip_flexion_r	hip_adduction_r	hip_rotation_r	knee_angle_r	knee_adduction_r	knee_angle_r_beta	ankle_angle_r	subtalar_angle_r	mtp_angle_r	hip_flexion_l	hip_adduction_l	hip_rotation_l	knee_angle_l	knee_adduction_l	knee_angle_l_beta	ankle_angle_l	subtalar_angle_l	mtp_angle_l	lumbar_extension	lumbar_bending	lumbar_rotation	arm_flex_r	arm_add_r	arm_rot_r	elbow_flex_r	pro_sup_r	wrist_flex_r	wrist_dev_r	arm_flex_l	arm_add_l	arm_rot_l	elbow_flex_l	pro_sup_l	wrist_flex_l	wrist_dev_l
      4.03000000	     26.80411472	     -0.38118888	     -8.46766670	      1.13646796	      0.94892277	     -0.05196570	    -17.38429985	     -5.82024931	     -2.17878093	     62.27951683	     -6.14040023	      1.08698263	     -2.64182743	    -10.55276169	     -7.50023278	    -12.61931644	      7.86354131	     -1.32640094	     29.87380733	     -1.08772523	      0.52139630	     11.55035246	    -18.19885571	     -7.50023278	    -37.45992492	     -4.81267282	      6.51319416	     19.08112676	     -9.34027841	     -9.86346733	     33.76007047	     90.00000001	      0.00000000	      0.00000000	      0.56857254	    -16.94196799	     14.73481914	     61.07237089	     90.00000001	      0.00000000	      0.00000000
      4.04000000	     26.72151751	     -0.39381233	     -8.62471867	      1.14079835	      0.94867331	     -0.05309330	    -16.08014245	     -5.96171011	     -1.82451629	     64.19798276	     -6.01202547	      1.12046617	     -2.72094580	    -10.53734770	     -7.50022882	    -12.76973911	      8.11722069	     -0.78936822	     30.01776284	     -0.97215312	      0.52390880	     11.98479571	    -18.32400477	     -7.50022882	    -37.45206780	     -4.78286175	      6.53209279	     18.78215031	     -9.41102552	     -9.92047396	     33.72345063	     90.00000001	      0.00000000	      0.00000000	      0.56669299	    -16.89700499	     14.65613158	     61.17580659	     90.00000001	      0.00000000	      0.00000000
      4.05000000	     26.55974698	     -0.41447921	     -8.73836129	      1.14487198	      0.94834265	     -0.05417271	    -14.69130291	     -6.02699678	     -1.35257223	     65.95180628	     -5.70245497	      1.15107617	     -2.28094899	    -10.80959771	     -7.50022477	    -12.80263160	      8.31739964	     -0.10747657	     30.20978088	     -0.77850294	      0.52726014	     12.35525072	    -18.49894767	     -7.50022477	    -37.41653582	     -4.73306358	      6.48170684	     18.54575718	     -9.49568418	     -9.99261336	     33.64991766	     90.00000001	      0.00000000	      0.00000000	      0.57170023	    -16.85987977	     14.55256930	     61.26796005	     90.00000001	      0.00000000	      0.00000000
      4.06000000	     26.40062626	     -0.45599353	     -8.85044621	      1.14894244	      0.94804693	     -0.05520677	    -13.34078653	     -6.05606535	     -0.90004842	     67.41773011	     -5.33622483	      1.17666136	     -1.44706727	    -11.15804687	     -7.50022066	    -12.85025268	      8.49315871	      0.49867526	     30.39841257	     -0.62751045	      0.53055239	     12.70422022	    -18.65957400	     -7.50022066	    -37.36680030	     -4.64761746	      6.45006825	     18.30080733	     -9.52465101	    -10.08059466	     33.51682595	     90.00000001	      0.00000000	      0.00000000	      0.57261422	    -16.82788775	     14.42542563	     61.31760494	     90.00000001	      0.00000000	      0.00000000
      4.07000000	     26.54712349	     -0.66719469	     -8.89938942	      1.15301409	      0.94823791	     -0.05616616	    -12.45482069	     -5.87283952	     -0.83871660	     68.30933314	     -5.32055715	      1.19222277	     -1.15873580	    -11.02884136	     -7.50021882	    -13.28289371	      8.48472304	      0.59738705	     30.51989585	     -0.68405688	      0.53267267	     12.82943531	    -18.68259313	     -7.50021882	    -37.69466501	     -4.40554567	      6.36980146	     18.08602533	     -9.56838887	    -10.10850887	     33.49799884	     90.00000001	      0.00000000	      0.00000000	      0.54286532	    -16.83806224	     14.38063902	     61.31388967	     90.00000001	      0.00000000	      0.00000000
      4.08000000	     26.17970804	     -0.59373119	     -9.05900341	      1.15672400	      0.94771128	     -0.05705369	    -10.78316066	     -5.94824105	     -0.72564886	     69.39296217	     -5.22352445	      1.21113567	      0.71860425	    -11.26942222	     -7.50021477	    -13.08150092	      8.71205431	      1.18486521	     30.62598036	     -0.43362374	      0.53452419	     13.31364362	    -18.80589367	     -7.50021477	    -37.47679157	     -4.46190581	      6.36082705	     17.83283606	     -9.64254516	    -10.21598629	     33.31805916	     90.00000001	      0.00000000	      0.00000000	      0.63900802	    -16.74761442	     14.24136599	     61.33446643	     90.00000001	      0.00000000	      0.00000000
      4.09000000	     26.07401680	     -0.66573753	     -9.12976604	      1.16052969	      0.94760066	     -0.05790441	     -9.56110529	     -5.83253476	     -0.67161809	     69.93246230	     -5.14112268	      1.22055172	      2.23350092	    -10.99054959	     -7.50021019	    -13.21039710	      8.77546765	      1.36407026	     30.71639653	     -0.37407560	      0.53610225	     13.62094180	    -18.83373655	     -7.50021019	    -37.54361532	     -4.34529796	      6.25914557	     17.66099059	     -9.65629591	    -10.35857260	     33.09497865	     90.00000001	      0.00000000	      0.00000000	      0.67826849	    -16.70162827	     14.08758789	     61.21289954	     90.00000001	      0.00000000	      0.00000000
      4.10000000	     26.04481658	     -0.74755016	     -9.21772162	      1.16436699	      0.94764879	     -0.05869162	     -8.45018205	     -5.71284822	     -1.02800246	     70.10298330	     -5.42885399	      1.22352787	      3.98418416	     -9.66663480	     -7.50019640	    -13.47293332	      8.84777917	      1.38677512	     30.68134400	     -0.38870315	      0.53549047	     13.82771359	    -18.87214612	     -7.50019640	    -37.67033791	     -4.25348514	      6.14984742	     17.62385346	     -9.57201841	    -10.95463084	     32.51594048	     90.00000001	      0.00000000	      0.00000000	      0.72915590	    -16.55672362	     13.73857857	     60.91572980	     90.00000001	      0.00000000	      0.00000000
      4.11000000	     26.01978855	     -0.83851606	     -9.26825358	      1.16816905	      0.94774817	     -0.05934548	     -7.37594281	     -5.50266494	     -1.47715991	     70.00658943	     -5.75578561	      1.22184548	      5.21161547	     -9.60763512	     -7.50019185	    -13.75522216	      8.86093098	      1.32108268	     30.62205737	     -0.40097531	      0.53445572	     14.04151468	    -18.86069621	     -7.50019185	    -37.80835709	     -4.15651054	      6.06444303	     17.38445346	     -9.57686269	    -11.11906758	     32.37742195	     90.00000001	      0.00000000	      0.00000000	      0.77457251	    -16.55556307	     13.67557411	     60.86423356	     90.00000001	      0.00000000	      0.00000000
      4.12000000	     26.03269574	     -0.95555224	     -9.33100596	      1.17200214	      0.94795407	     -0.05987698	     -6.39258310	     -5.22455375	     -1.94381349	     69.63043434	     -6.12131719	      1.21528034	      6.37745747	     -9.49900228	     -7.50018839	    -14.12869211	      8.82658405	      1.12566280	     30.45674666	     -0.43247315	      0.53157051	     14.19660195	    -18.83305004	     -7.50018839	    -37.97517847	     -4.05382816	      6.00967230	     17.13759810	     -9.60314257	    -11.24115572	     32.18734314	     90.00000001	      0.00000000	      0.00000000	      0.80797526	    -16.52974388	     13.63880425	     60.78003907	     90.00000001	      0.00000000	      0.00000000
      4.13000000	     26.08187098	     -1.02937769	     -9.34188687	      1.17598084	      0.94822829	     -0.06040408	     -5.50092571	     -4.99740561	     -3.08921446	     68.89488780	     -7.06563417	      1.20244263	      7.67741577	     -8.16539455	     -7.50017706	    -14.56608296	      8.83937651	      0.91176389	     30.23761989	     -0.51694698	      0.52774603	     14.32227517	    -18.80365290	     -7.50017706	    -38.13175907	     -3.98009753	      5.86785705	     17.03962603	     -9.51742684	    -11.72040136	     31.57427822	     90.00000001	      0.00000000	      0.00000000	      0.84377728	    -16.52278930	     13.57756832	     60.49887394	     90.00000001	      0.00000000	      0.00000000
